<svg height="512" viewBox="0 0 128 128" width="512" xmlns="http://www.w3.org/2000/svg" xmlns:xlink="http://www.w3.org/1999/xlink"><linearGradient id="a" gradientUnits="userSpaceOnUse" x1="109.234" x2="18.766" y1="109.231" y2="18.763"><stop offset="0" stop-color="#ffb655"/><stop offset="1" stop-color="#e57373"/></linearGradient><path d="m64 0a64 64 0 1 0 64 64 64.073 64.073 0 0 0 -64-64zm0 124.5a60.5 60.5 0 1 1 60.5-60.5 60.568 60.568 0 0 1 -60.5 60.5zm56-60.5a56 56 0 0 1 -112 0 1.75 1.75 0 0 1 3.5 0 52.56 52.56 0 1 0 13.049-34.6 1.75 1.75 0 1 1 -2.63-2.31 55.978 55.978 0 0 1 98.081 36.91zm-109.542-16.431a55.745 55.745 0 0 1 2.5-6.6 1.751 1.751 0 1 1 3.189 1.445 52.2 52.2 0 0 0 -2.347 6.186 1.752 1.752 0 0 1 -1.673 1.236 1.753 1.753 0 0 1 -1.673-2.265zm51.792-18.189v-9.625a1.75 1.75 0 1 1 3.5 0v9.625a1.75 1.75 0 0 1 -3.5 0zm34.271 2.1a1.749 1.749 0 0 1 0 2.475l-6.806 6.805a1.749 1.749 0 0 1 -2.474-2.474l6.805-6.806a1.749 1.749 0 0 1 2.475-.004zm-55.762 55.758a1.748 1.748 0 0 1 0 2.474l-6.8 6.806a1.75 1.75 0 1 1 -2.475-2.475l6.806-6.805a1.748 1.748 0 0 1 2.469 0zm56.108-23.238a1.751 1.751 0 0 1 1.75-1.75h9.625a1.75 1.75 0 0 1 0 3.5h-9.625a1.751 1.751 0 0 1 -1.75-1.75zm-78.859 0a1.75 1.75 0 0 1 1.75-1.75h9.625a1.75 1.75 0 0 1 0 3.5h-9.625a1.75 1.75 0 0 1 -1.75-1.75zm69.233 23.238a1.748 1.748 0 0 1 2.474 0l6.806 6.805a1.75 1.75 0 1 1 -2.475 2.475l-6.805-6.806a1.748 1.748 0 0 1 0-2.474zm-46.482-46.482a1.748 1.748 0 0 1 -2.474 0l-6.806-6.8a1.75 1.75 0 1 1 2.475-2.475l6.805 6.806a1.748 1.748 0 0 1 0 2.469zm12.272 53.824a32.6 32.6 0 0 0 21.938 0 1.744 1.744 0 0 1 1.829.409l7.63 7.63a1.75 1.75 0 0 1 -2.475 2.474l-6.853-6.858a36.11 36.11 0 0 1 -22.19 0l-5.068 5.065a41.992 41.992 0 0 0 16.158 3.189 1.75 1.75 0 0 1 0 3.5 45.476 45.476 0 0 1 -19.952-4.557 1.75 1.75 0 0 1 -.476-2.813l7.63-7.63a1.748 1.748 0 0 1 1.829-.409zm.5-21.864a10.469 10.469 0 1 0 16.509-8.539l-4.321-22.815a1.75 1.75 0 0 0 -3.438 0l-4.321 22.815a10.522 10.522 0 0 0 -4.429 8.539zm6.907-5.98a1.749 1.749 0 0 0 .822-1.177l2.74-14.466 2.74 14.466a1.748 1.748 0 0 0 .821 1.177 6.969 6.969 0 1 1 -7.123 0z" fill="url(#a)"/></svg>