<svg height="512" viewBox="0 0 64 64" width="512" xmlns="http://www.w3.org/2000/svg"><g id="Flat"><g id="Color_copy" data-name="Color copy"><g><path d="m46 42-4-10-7-6 1.157-10.5-3.157-8.5h26l-1.3 6.193-5.529 6.807-.714 10z" fill="#57b7eb"/><path d="m50 19 1.263-12h-18.263l3.157 8.5-1.157 10.5 7 6 4-8z" fill="#4891d3"/><path d="m59 7h-5l-2 13h.171l5.529-6.807z" fill="#aae1f9"/><path d="m14.5 38-4.5-12 1-7-5-5-1-7h23l-4 15-6.931 6.378z" fill="#4891d3"/><path d="m3 3h58v4h-58z" fill="#aae1f9"/><path d="m32 53-3.333-16-7.331-8.368.664-8.632-5.639-6.361-.361-6.639h32l-1 11-7 8-3 15z" fill="#aae1f9"/><path d="m20 44-4 6v4l3 7 4-8z" fill="#57b7eb"/><path d="m20 44-4 6v4l3 7-1-9z" fill="#4891d3"/><path d="m45 47-3 8 4 4 2-8z" fill="#aae1f9"/><g fill="#57b7eb"><path d="m47 18-6.984 8-3.016-6v-13h11z"/><path d="m6 14 5 5 2-12h-8z"/><path d="m25 27.182v-11.515l6-8.667h-15l.361 6.639 5.639 6.361-.664 8.632 7.331 8.368 3.333 16v-19z"/><path d="m38 8-10 2 2-3h8z"/><path d="m45 47-3 8 4 4-2-4z"/></g></g></g></g></svg>